<svg width="25" height="25" viewBox="0 0 25 25" fill="none" xmlns="http://www.w3.org/2000/svg">
<g clip-path="url(#clip0_362_530)">
<path d="M19.75 9.21001L14.417 5.06201C13.949 4.69792 13.373 4.50024 12.78 4.50024C12.1871 4.50024 11.611 4.69792 11.143 5.06201L5.80903 9.21001C5.48847 9.4593 5.22912 9.77854 5.05078 10.1434C4.87245 10.5082 4.77984 10.9089 4.78003 11.315V18.515C4.78003 19.0454 4.99074 19.5542 5.36582 19.9292C5.74089 20.3043 6.2496 20.515 6.78003 20.515H18.78C19.3105 20.515 19.8192 20.3043 20.1942 19.9292C20.5693 19.5542 20.78 19.0454 20.78 18.515V11.315C20.78 10.492 20.4 9.71501 19.75 9.21001Z" stroke="black" stroke-width="2" stroke-linecap="round" stroke-linejoin="round"/>
<path d="M16.75 15.5C14.54 16.833 10.958 16.833 8.75 15.5" stroke="black" stroke-width="2" stroke-linecap="round" stroke-linejoin="round"/>
</g>
<defs>
<clipPath id="clip0_362_530">
<rect width="24" height="24" fill="white" transform="translate(0.75 0.5)"/>
</clipPath>
</defs>
</svg>
